<?xml version="1.0" encoding="UTF-8" standalone="no"?>
<svg
   height="18.242607mm"
   viewBox="0 0 80.028766 18.242607"
   width="80.028763mm"
   version="1.1"
   id="svg2"
   sodipodi:docname="horizontal.svg"
   xmlns:inkscape="http://www.inkscape.org/namespaces/inkscape"
   xmlns:sodipodi="http://sodipodi.sourceforge.net/DTD/sodipodi-0.dtd"
   xmlns="http://www.w3.org/2000/svg"
   xmlns:svg="http://www.w3.org/2000/svg">
  <defs
     id="defs2" />
  <sodipodi:namedview
     id="namedview2"
     pagecolor="#ffffff"
     bordercolor="#666666"
     borderopacity="1.0"
     inkscape:showpageshadow="2"
     inkscape:pageopacity="0.0"
     inkscape:pagecheckerboard="0"
     inkscape:deskcolor="#d1d1d1"
     inkscape:document-units="mm" />
  <g
     id="text2"
     style="font-size:9.525px;font-family:'Suisse Int\\'l'"
     aria-label="Systems andFormalisms Lab">
    <path
       d="m 11.725119,3.8957251 0.8382,0.161925 c 0.657225,0.123825 1.419224,0.3619499 1.419224,1.0667999 0,0.66675 -0.657224,1.038225 -1.476374,1.038225 -0.9525,0 -1.5621,-0.47625 -1.77165,-1.419225 H 9.5438937 c 0.142875,1.514475 1.2668253,2.4098249 2.9051253,2.4098249 1.362074,0 2.743199,-0.7143749 2.743199,-2.1050249 0,-1.3906499 -1.152525,-1.8287999 -2.362199,-2.0669249 l -0.847725,-0.161925 c -0.59055,-0.1143 -1.0287,-0.381 -1.0287,-0.9144 0,-0.6762749 0.790575,-0.91439992 1.323975,-0.91439992 0.676275,0 1.400174,0.23812502 1.600199,1.06679992 h 1.171575 C 14.773118,0.6191252 13.706318,2.2125244e-7 12.344244,2.2125244e-7 11.077419,2.2125244e-7 9.7343937,0.6477002 9.7343937,1.9431001 c 0,1.171575 0.9048753,1.73355 1.9907253,1.952625 z m 4.181463,4.8005998 h 0.51435 c 1.152525,0 1.495425,-0.352425 1.971675,-1.6764 l 1.800225,-5.1149248 h -1.16205 L 17.868732,5.58165 16.706682,1.9050001 h -1.23825 l 1.857375,5.0958748 -0.05715,0.123825 c -0.2286,0.66675 -0.43815,0.70485 -0.93345,0.70485 h -0.428625 z m 7.810469,-5.3911498 h 1.0668 c -0.20955,-1.0287 -1.12395,-1.514475 -2.124075,-1.514475 -1.114425,0 -2.085975,0.581025 -2.085975,1.4859 0,0.93345 0.676275,1.3239749 1.54305,1.4954249 l 0.771525,0.1524 c 0.504825,0.09525 0.885825,0.28575 0.885825,0.70485 0,0.4191 -0.43815,0.66675 -1.0287,0.66675 -0.66675,0 -1.04775,-0.3048 -1.152525,-0.828675 h -1.1049 c 0.123825,0.97155 0.962025,1.6859249 2.219325,1.6859249 1.16205,0 2.1717,-0.5905499 2.1717,-1.6573499 0,-1.000125 -0.790575,-1.3239749 -1.8288,-1.5239999 l -0.7239,-0.142875 c -0.43815,-0.085725 -0.6858,-0.2667 -0.6858,-0.6096 0,-0.3429 0.4572,-0.561975 0.9525,-0.561975 0.5715,0 1.000125,0.180975 1.12395,0.6477 z m 2.314565,-2.7527249 v 1.3525499 h -0.762 v 0.81915 h 0.762 V 5.686425 c 0,1.04775 0.219075,1.3430249 1.31445,1.3430249 h 0.8382 V 6.162675 h -0.409575 c -0.485775,0 -0.6096,-0.123825 -0.6096,-0.6477 V 2.7241501 h 1.0287 v -0.81915 h -1.0287 V 0.5524502 Z m 3.886183,4.2386248 h 3.819525 c 0.09525,-1.7240249 -0.885825,-3.0003749 -2.45745,-3.0003749 -1.457325,0 -2.5146,1.095375 -2.5146,2.6384249 0,1.46685 0.942975,2.7241499 2.5908,2.7241499 1.323975,0 2.085975,-0.8381999 2.3241,-1.6573499 h -1.114425 c -0.200025,0.47625 -0.66675,0.714375 -1.2573,0.714375 -0.6477,0 -1.31445,-0.466725 -1.39065,-1.419225 z m 0,-0.8286749 c 0.09525,-0.97155 0.828675,-1.285875 1.362075,-1.285875 0.66675,0 1.27635,0.485775 1.304925,1.285875 z m 5.886448,3.0670498 V 4.3053 c 0,-0.9239249 0.28575,-1.5906749 1.123949,-1.5906749 0.8382,0 0.904875,0.676275 0.904875,1.3716 v 2.9432248 h 1.133475 V 4.3053 c 0,-0.9239249 0.28575,-1.5906749 1.12395,-1.5906749 0.8382,0 0.904875,0.676275 0.904875,1.3716 v 2.9432248 h 1.133475 V 3.8100001 c 0,-1.2192 -0.466725,-2.0193 -1.6764,-2.0193 -0.62865,0 -1.228725,0.257175 -1.666875,0.904875 -0.238125,-0.5715 -0.70485,-0.904875 -1.495425,-0.904875 -0.6858,0 -1.190624,0.295275 -1.485899,0.828675 V 1.9050001 H 34.670772 V 7.0294499 Z M 46.234116,3.3051751 h 1.0668 c -0.20955,-1.0287 -1.12395,-1.514475 -2.124075,-1.514475 -1.114425,0 -2.085975,0.581025 -2.085975,1.4859 0,0.93345 0.676275,1.3239749 1.54305,1.4954249 l 0.771525,0.1524 c 0.504825,0.09525 0.885825,0.28575 0.885825,0.70485 0,0.4191 -0.43815,0.66675 -1.0287,0.66675 -0.66675,0 -1.04775,-0.3048 -1.152525,-0.828675 h -1.1049 c 0.123825,0.97155 0.962025,1.6859249 2.219325,1.6859249 1.16205,0 2.1717,-0.5905499 2.1717,-1.6573499 0,-1.000125 -0.790575,-1.3239749 -1.8288,-1.5239999 l -0.7239,-0.142875 c -0.43815,-0.085725 -0.6858,-0.2667 -0.6858,-0.6096 0,-0.3429 0.4572,-0.561975 0.9525,-0.561975 0.5715,0 1.000125,0.180975 1.12395,0.6477 z M 50.206027,5.61975 c 0,0.93345 0.78105,1.5335249 1.895475,1.5335249 0.752475,0 1.362075,-0.2667 1.685925,-0.8191499 0.01905,0.352425 0.05715,0.4762499 0.09525,0.6953249 h 1.038225 C 54.825652,6.600825 54.768502,5.92455 54.768502,5.27685 c 0,-0.466725 0.01905,-1.0667999 0.01905,-1.3239749 0.02858,-1.6383 -0.93345,-2.2002749 -2.162175,-2.2002749 -1.23825,0 -2.105025,0.7143749 -2.181225,1.7621249 h 1.114425 c 0.02858,-0.619125 0.4572,-0.923925 1.0287,-0.923925 0.561975,0 1.0668,0.2667 1.0668,1.143 v 0.09525 C 51.777652,4.0195501 50.206027,4.3434 50.206027,5.61975 Z M 53.682652,4.619625 V 5.01015 c 0,0.866775 -0.4953,1.2954 -1.3335,1.2954 -0.5715,0 -0.942975,-0.2667 -0.942975,-0.714375 0,-0.59055 0.657225,-0.81915 2.276475,-0.97155 z M 57.06401,2.6193751 V 1.9050001 H 55.930535 V 7.0294499 H 57.06401 V 4.3053 c 0,-0.9239249 0.32385,-1.5906749 1.190625,-1.5906749 0.866775,0 0.97155,0.676275 0.97155,1.3716 V 7.0294499 H 60.35966 V 3.8100001 c 0,-1.2192 -0.504825,-2.0193 -1.743075,-2.0193 -0.714375,0 -1.2573,0.295275 -1.552575,0.828675 z M 64.941174,0.12382522 V 2.5908001 c -0.3048,-0.504825 -0.8382,-0.8001 -1.524,-0.8001 -1.209675,0 -2.228849,1.038225 -2.228849,2.6765249 0,1.647825 1.019174,2.6860499 2.228849,2.6860499 0.6858,0 1.2192,-0.295275 1.524,-0.8000999 v 0.6762749 h 1.133475 V 0.12382522 Z m -1.27635,2.59079988 c 0.74295,0 1.323975,0.5715 1.323975,1.7525999 0,1.1811 -0.581025,1.762125 -1.323975,1.762125 -0.752475,0 -1.2954,-0.676275 -1.2954,-1.762125 0,-1.0763249 0.542925,-1.7525999 1.2954,-1.7525999 z"
       id="path3" />
    <path
       d="m 9.9915686,11.213158 v 6.905625 h 1.2096754 v -3.048 h 3.400424 v -1.000125 h -3.400424 v -1.84785 h 3.609974 v -1.00965 z m 10.1726984,4.352925 c 0,-1.84785 -1.27635,-2.68605 -2.524125,-2.68605 -1.247774,0 -2.524124,0.8382 -2.524124,2.68605 0,1.84785 1.27635,2.676525 2.524124,2.676525 1.247775,0 2.524125,-0.828675 2.524125,-2.676525 z m -2.524125,1.7526 c -0.714374,0 -1.352549,-0.5715 -1.352549,-1.7526 0,-1.1811 0.638175,-1.762125 1.352549,-1.762125 0.714375,0 1.35255,0.581025 1.35255,1.762125 0,1.1811 -0.638175,1.7526 -1.35255,1.7526 z m 6.257917,-3.171825 v -1.143 c -0.08573,-0.0095 -0.20955,-0.01905 -0.295275,-0.01905 -0.619125,0.0095 -1.114425,0.352425 -1.39065,0.923925 v -0.9144 h -1.114425 v 5.12445 h 1.133475 v -2.68605 c 0,-1.0287 0.409575,-1.31445 1.12395,-1.31445 0.17145,0 0.352425,0.0095 0.542925,0.02858 z m 1.847844,3.971925 v -2.72415 c 0,-0.923925 0.28575,-1.590675 1.12395,-1.590675 0.8382,0 0.904875,0.676275 0.904875,1.3716 v 2.943225 h 1.133475 v -2.72415 c 0,-0.923925 0.285749,-1.590675 1.123949,-1.590675 0.8382,0 0.904875,0.676275 0.904875,1.3716 v 2.943225 h 1.133475 v -3.21945 c 0,-1.2192 -0.466725,-2.0193 -1.6764,-2.0193 -0.62865,0 -1.228725,0.257175 -1.666874,0.904875 -0.238125,-0.5715 -0.70485,-0.904875 -1.495425,-0.904875 -0.6858,0 -1.190625,0.295275 -1.4859,0.828675 v -0.714375 h -1.133475 v 5.12445 z m 7.200896,-1.4097 c 0,0.93345 0.78105,1.533525 1.895475,1.533525 0.752475,0 1.362075,-0.2667 1.685925,-0.81915 0.01905,0.352425 0.05715,0.47625 0.09525,0.695325 h 1.038225 c -0.09525,-0.428625 -0.1524,-1.1049 -0.1524,-1.7526 0,-0.466725 0.01905,-1.0668 0.01905,-1.323975 0.02858,-1.6383 -0.93345,-2.200275 -2.162175,-2.200275 -1.23825,0 -2.105025,0.714375 -2.181225,1.762125 h 1.114425 c 0.02858,-0.619125 0.4572,-0.923925 1.0287,-0.923925 0.561975,0 1.0668,0.2667 1.0668,1.143 v 0.09525 c -1.876425,0.1905 -3.44805,0.51435 -3.44805,1.7907 z m 3.476625,-1.000125 v 0.390525 c 0,0.866775 -0.4953,1.2954 -1.3335,1.2954 -0.5715,0 -0.942975,-0.2667 -0.942975,-0.714375 0,-0.59055 0.657225,-0.81915 2.276475,-0.97155 z m 3.381358,2.409825 v -6.905625 h -1.133474 v 6.905625 z m 2.40981,-6.905625 h -1.133475 v 1.143 h 1.133475 z m 0,1.781175 h -1.133475 v 5.12445 h 1.133475 z m 4.200509,1.400175 h 1.0668 c -0.20955,-1.0287 -1.12395,-1.514475 -2.124075,-1.514475 -1.114425,0 -2.085975,0.581025 -2.085975,1.4859 0,0.93345 0.676275,1.323975 1.54305,1.495425 l 0.771525,0.1524 c 0.504825,0.09525 0.885825,0.28575 0.885825,0.70485 0,0.4191 -0.43815,0.66675 -1.0287,0.66675 -0.66675,0 -1.04775,-0.3048 -1.152525,-0.828675 h -1.1049 c 0.123825,0.97155 0.962025,1.685925 2.219325,1.685925 1.16205,0 2.1717,-0.59055 2.1717,-1.65735 0,-1.000125 -0.790575,-1.323975 -1.8288,-1.524 l -0.7239,-0.142875 c -0.43815,-0.08573 -0.6858,-0.2667 -0.6858,-0.6096 0,-0.3429 0.4572,-0.561975 0.9525,-0.561975 0.5715,0 1.000125,0.180975 1.12395,0.6477 z m 3.219439,3.724275 v -2.72415 c 0,-0.923925 0.28575,-1.590675 1.12395,-1.590675 0.8382,0 0.904875,0.676275 0.904875,1.3716 v 2.943225 h 1.133475 v -2.72415 c 0,-0.923925 0.28575,-1.590675 1.12395,-1.590675 0.8382,0 0.904875,0.676275 0.904875,1.3716 v 2.943225 h 1.133475 v -3.21945 c 0,-1.2192 -0.466725,-2.0193 -1.6764,-2.0193 -0.62865,0 -1.228725,0.257175 -1.666875,0.904875 -0.238125,-0.5715 -0.70485,-0.904875 -1.495425,-0.904875 -0.6858,0 -1.190625,0.295275 -1.4859,0.828675 v -0.714375 h -1.133475 v 5.12445 z m 10.429872,-3.724275 h 1.0668 c -0.20955,-1.0287 -1.12395,-1.514475 -2.124075,-1.514475 -1.114425,0 -2.085975,0.581025 -2.085975,1.4859 0,0.93345 0.676275,1.323975 1.54305,1.495425 l 0.771525,0.1524 c 0.504825,0.09525 0.885825,0.28575 0.885825,0.70485 0,0.4191 -0.43815,0.66675 -1.0287,0.66675 -0.66675,0 -1.04775,-0.3048 -1.152525,-0.828675 h -1.1049 c 0.123825,0.97155 0.962025,1.685925 2.219325,1.685925 1.16205,0 2.1717,-0.59055 2.1717,-1.65735 0,-1.000125 -0.790575,-1.323975 -1.8288,-1.524 l -0.7239,-0.142875 c -0.43815,-0.08573 -0.6858,-0.2667 -0.6858,-0.6096 0,-0.3429 0.4572,-0.561975 0.9525,-0.561975 0.5715,0 1.000125,0.180975 1.12395,0.6477 z m 5.543536,2.7051 v -5.88645 h -1.209675 v 6.905625 h 4.686299 v -1.019175 z m 3.809989,-0.390525 c 0,0.93345 0.78105,1.533525 1.895475,1.533525 0.752475,0 1.362075,-0.2667 1.685925,-0.81915 0.01905,0.352425 0.05715,0.47625 0.09525,0.695325 h 1.038225 c -0.09525,-0.428625 -0.1524,-1.1049 -0.1524,-1.7526 0,-0.466725 0.01905,-1.0668 0.01905,-1.323975 0.02858,-1.6383 -0.93345,-2.200275 -2.162175,-2.200275 -1.23825,0 -2.105025,0.714375 -2.181225,1.762125 h 1.114425 c 0.02858,-0.619125 0.4572,-0.923925 1.0287,-0.923925 0.561975,0 1.0668,0.2667 1.0668,1.143 v 0.09525 c -1.876425,0.1905 -3.44805,0.51435 -3.44805,1.7907 z m 3.476625,-1.000125 v 0.390525 c 0,0.866775 -0.4953,1.2954 -1.3335,1.2954 -0.5715,0 -0.942975,-0.2667 -0.942975,-0.714375 0,-0.59055 0.657225,-0.81915 2.276475,-0.97155 z m 3.381355,-4.4958 h -1.133475 v 6.905625 h 1.133475 v -0.676275 c 0.3048,0.504825 0.8382,0.8001 1.524,0.8001 1.209675,0 2.22885,-1.038225 2.22885,-2.68605 0,-1.6383 -1.019175,-2.676525 -2.22885,-2.676525 -0.6858,0 -1.2192,0.295275 -1.524,0.8001 z m 1.27635,6.105525 c -0.74295,0 -1.323975,-0.581025 -1.323975,-1.762125 0,-1.1811 0.581025,-1.7526 1.323975,-1.7526 0.752475,0 1.2954,0.676275 1.2954,1.7526 0,1.08585 -0.542925,1.762125 -1.2954,1.762125 z"
       id="path4" />
  </g>
  <path
     d="m0 1.9040836h5.796269v5.1254825h-5.796269z"
     fill="#e30613"
     id="path2" />
</svg>
