<?xml version="1.0" encoding="UTF-8" standalone="no"?>
<!DOCTYPE svg PUBLIC "-//W3C//DTD SVG 1.1//EN"
 "http://www.w3.org/Graphics/SVG/1.1/DTD/svg11.dtd">
<!-- Generated by graphviz version 14.1.5 (20260411.2331)
 -->
<!-- Title: G Pages: 1 -->
<svg width="737pt" height="1894pt"
 viewBox="0.00 0.00 737.00 1894.00" xmlns="http://www.w3.org/2000/svg" xmlns:xlink="http://www.w3.org/1999/xlink">
<g id="graph0" class="graph" transform="scale(1 1) rotate(0) translate(4 1890.2)">
<title>G</title>
<polygon fill="white" stroke="none" points="-4,4 -4,-1890.2 732.5,-1890.2 732.5,4 -4,4"/>
<g id="clust2" class="cluster">
<title>cluster_node3</title>
<polygon fill="none" stroke="black" stroke-dasharray="1,5" points="47.75,-1494.45 47.75,-1546.45 135.75,-1546.45 135.75,-1494.45 47.75,-1494.45"/>
</g>
<g id="clust3" class="cluster">
<title>cluster_node12</title>
<polygon fill="none" stroke="black" stroke-dasharray="1,5" points="134.75,-1206.45 134.75,-1258.45 222.75,-1258.45 222.75,-1206.45 134.75,-1206.45"/>
</g>
<g id="clust4" class="cluster">
<title>cluster_node21</title>
<polygon fill="none" stroke="black" stroke-dasharray="1,5" points="282.75,-800 282.75,-1062.45 388.75,-1062.45 388.75,-800 282.75,-800"/>
<text xml:space="preserve" text-anchor="middle" x="335.75" y="-1045.15" font-family="Times,serif" font-size="14.00">NegLookBehind</text>
</g>
<g id="clust5" class="cluster">
<title>cluster_node30</title>
<polygon fill="none" stroke="black" stroke-dasharray="1,5" points="258.75,-584 258.75,-636 346.75,-636 346.75,-584 258.75,-584"/>
</g>
<g id="clust6" class="cluster">
<title>cluster_node40</title>
<polygon fill="none" stroke="black" stroke-dasharray="1,5" points="348.75,-296 348.75,-348 436.75,-348 436.75,-296 348.75,-296"/>
</g>
<g id="clust7" class="cluster">
<title>cluster_node49</title>
<polygon fill="none" stroke="black" stroke-dasharray="1,5" points="477.75,-8 477.75,-60 565.75,-60 565.75,-8 477.75,-8"/>
</g>
<!-- title -->
<g id="node1" class="node">
<title>title</title>
<text xml:space="preserve" text-anchor="middle" x="210.75" y="-1859.4" font-family="Courier,monospace" font-size="24.00">⟨[^]⟩*?⟨a(?=b)c|(?&lt;!xy)bb⟩</text>
<text xml:space="preserve" text-anchor="middle" x="210.75" y="-1829.4" font-family="Courier,monospace" font-size="24.00">p⍘xybbc</text>
<text xml:space="preserve" text-anchor="middle" x="210.75" y="-1799.4" font-family="Courier,monospace" font-size="24.00">→</text>
</g>
<!-- node0 -->
<g id="node2" class="node">
<title>node0</title>
<ellipse fill="none" stroke="black" cx="210.75" cy="-1736.45" rx="37.02" ry="18"/>
<text xml:space="preserve" text-anchor="middle" x="210.75" y="-1731.4" font-family="Times,serif" font-size="14.00">Choice</text>
</g>
<!-- node1 -->
<g id="node3" class="node">
<title>node1</title>
<ellipse fill="none" stroke="black" cx="161.75" cy="-1664.45" rx="37.02" ry="18"/>
<text xml:space="preserve" text-anchor="middle" x="161.75" y="-1659.4" font-family="Times,serif" font-size="14.00">Choice</text>
</g>
<!-- node0&#45;&gt;node1 -->
<g id="edge52" class="edge">
<title>node0&#45;&gt;node1</title>
<path fill="none" stroke="black" d="M199.14,-1718.86C193.34,-1710.58 186.2,-1700.37 179.71,-1691.11"/>
<polygon fill="black" stroke="black" points="182.75,-1689.34 174.15,-1683.16 177.01,-1693.36 182.75,-1689.34"/>
</g>
<!-- node6 -->
<g id="node8" class="node">
<title>node6</title>
<ellipse fill="none" stroke="black" cx="278.75" cy="-1664.45" rx="43.16" ry="18"/>
<text xml:space="preserve" text-anchor="middle" x="278.75" y="-1659.4" font-family="Times,serif" font-size="14.00">Reset {}</text>
</g>
<!-- node0&#45;&gt;node6 -->
<g id="edge53" class="edge">
<title>node0&#45;&gt;node6</title>
<path fill="none" stroke="black" d="M225.84,-1719.91C234.52,-1710.98 245.62,-1699.56 255.4,-1689.48"/>
<polygon fill="black" stroke="black" points="257.72,-1692.12 262.17,-1682.51 252.7,-1687.24 257.72,-1692.12"/>
</g>
<!-- node2 -->
<g id="node4" class="node">
<title>node2</title>
<polygon fill="none" stroke="red" points="71.5,-1610.45 0,-1610.45 0,-1574.45 71.5,-1574.45 71.5,-1610.45"/>
<text xml:space="preserve" text-anchor="middle" x="35.75" y="-1587.4" font-family="Times,serif" font-size="14.00">Mismatch</text>
</g>
<!-- node1&#45;&gt;node2 -->
<g id="edge3" class="edge">
<title>node1&#45;&gt;node2</title>
<path fill="none" stroke="black" d="M138.05,-1650.28C120.85,-1640.73 97.15,-1627.56 76.89,-1616.3"/>
<polygon fill="black" stroke="black" points="78.73,-1613.32 68.29,-1611.52 75.33,-1619.44 78.73,-1613.32"/>
</g>
<!-- node3 -->
<g id="node5" class="node">
<title>node3</title>
<ellipse fill="none" stroke="black" cx="161.75" cy="-1592.45" rx="72.34" ry="18"/>
<text xml:space="preserve" text-anchor="middle" x="161.75" y="-1587.4" font-family="Times,serif" font-size="14.00">NegLookBehind</text>
</g>
<!-- node1&#45;&gt;node3 -->
<g id="edge4" class="edge">
<title>node1&#45;&gt;node3</title>
<path fill="none" stroke="black" d="M161.75,-1646.14C161.75,-1638.85 161.75,-1630.17 161.75,-1621.98"/>
<polygon fill="black" stroke="black" points="165.25,-1622.06 161.75,-1612.06 158.25,-1622.07 165.25,-1622.06"/>
</g>
<!-- node4 -->
<g id="node6" class="node">
<title>node4</title>
<polygon fill="none" stroke="red" points="127.5,-1538.45 56,-1538.45 56,-1502.45 127.5,-1502.45 127.5,-1538.45"/>
<text xml:space="preserve" text-anchor="middle" x="91.75" y="-1515.4" font-family="Times,serif" font-size="14.00">Mismatch</text>
</g>
<!-- node3&#45;&gt;node4 -->
<g id="edge1" class="edge">
<title>node3&#45;&gt;node4</title>
<path fill="none" stroke="black" stroke-dasharray="5,2" d="M144.8,-1574.5C136.5,-1566.2 126.33,-1556.03 117.13,-1546.82"/>
<polygon fill="black" stroke="black" points="119.64,-1544.39 110.1,-1539.79 114.69,-1549.34 119.64,-1544.39"/>
</g>
<!-- node5 -->
<g id="node7" class="node">
<title>node5</title>
<polygon fill="none" stroke="red" points="217.5,-1538.45 146,-1538.45 146,-1502.45 217.5,-1502.45 217.5,-1538.45"/>
<text xml:space="preserve" text-anchor="middle" x="181.75" y="-1515.4" font-family="Times,serif" font-size="14.00">Mismatch</text>
</g>
<!-- node3&#45;&gt;node5 -->
<g id="edge2" class="edge">
<title>node3&#45;&gt;node5</title>
<path fill="none" stroke="black" d="M166.69,-1574.14C168.83,-1566.68 171.37,-1557.77 173.76,-1549.41"/>
<polygon fill="black" stroke="black" points="177.07,-1550.58 176.45,-1540.01 170.33,-1548.66 177.07,-1550.58"/>
</g>
<!-- node7 -->
<g id="node9" class="node">
<title>node7</title>
<ellipse fill="none" stroke="black" cx="297.75" cy="-1592.45" rx="45.21" ry="18"/>
<text xml:space="preserve" text-anchor="middle" x="297.75" y="-1587.4" font-family="Times,serif" font-size="14.00">Read &quot;x&quot;</text>
</g>
<!-- node6&#45;&gt;node7 -->
<g id="edge51" class="edge">
<title>node6&#45;&gt;node7</title>
<path fill="none" stroke="black" d="M283.45,-1646.14C285.47,-1638.68 287.89,-1629.77 290.16,-1621.41"/>
<polygon fill="black" stroke="black" points="293.47,-1622.58 292.71,-1612.01 286.71,-1620.75 293.47,-1622.58"/>
</g>
<!-- node8 -->
<g id="node10" class="node">
<title>node8</title>
<ellipse fill="none" stroke="black" cx="297.75" cy="-1520.45" rx="42.65" ry="18"/>
<text xml:space="preserve" text-anchor="middle" x="297.75" y="-1515.4" font-family="Times,serif" font-size="14.00">Progress</text>
</g>
<!-- node7&#45;&gt;node8 -->
<g id="edge50" class="edge">
<title>node7&#45;&gt;node8</title>
<path fill="none" stroke="black" d="M297.75,-1574.14C297.75,-1566.85 297.75,-1558.17 297.75,-1549.98"/>
<polygon fill="black" stroke="black" points="301.25,-1550.06 297.75,-1540.06 294.25,-1550.07 301.25,-1550.06"/>
</g>
<!-- node9 -->
<g id="node11" class="node">
<title>node9</title>
<ellipse fill="none" stroke="black" cx="297.75" cy="-1448.45" rx="37.02" ry="18"/>
<text xml:space="preserve" text-anchor="middle" x="297.75" y="-1443.4" font-family="Times,serif" font-size="14.00">Choice</text>
</g>
<!-- node8&#45;&gt;node9 -->
<g id="edge49" class="edge">
<title>node8&#45;&gt;node9</title>
<path fill="none" stroke="black" d="M297.75,-1502.14C297.75,-1494.85 297.75,-1486.17 297.75,-1477.98"/>
<polygon fill="black" stroke="black" points="301.25,-1478.06 297.75,-1468.06 294.25,-1478.07 301.25,-1478.06"/>
</g>
<!-- node10 -->
<g id="node12" class="node">
<title>node10</title>
<ellipse fill="none" stroke="black" cx="248.75" cy="-1376.45" rx="37.02" ry="18"/>
<text xml:space="preserve" text-anchor="middle" x="248.75" y="-1371.4" font-family="Times,serif" font-size="14.00">Choice</text>
</g>
<!-- node9&#45;&gt;node10 -->
<g id="edge47" class="edge">
<title>node9&#45;&gt;node10</title>
<path fill="none" stroke="black" d="M286.14,-1430.86C280.34,-1422.58 273.2,-1412.37 266.71,-1403.11"/>
<polygon fill="black" stroke="black" points="269.75,-1401.34 261.15,-1395.16 264.01,-1405.36 269.75,-1401.34"/>
</g>
<!-- node15 -->
<g id="node17" class="node">
<title>node15</title>
<ellipse fill="none" stroke="black" cx="365.75" cy="-1376.45" rx="43.16" ry="18"/>
<text xml:space="preserve" text-anchor="middle" x="365.75" y="-1371.4" font-family="Times,serif" font-size="14.00">Reset {}</text>
</g>
<!-- node9&#45;&gt;node15 -->
<g id="edge48" class="edge">
<title>node9&#45;&gt;node15</title>
<path fill="none" stroke="black" d="M312.84,-1431.91C321.52,-1422.98 332.62,-1411.56 342.4,-1401.48"/>
<polygon fill="black" stroke="black" points="344.72,-1404.12 349.17,-1394.51 339.7,-1399.24 344.72,-1404.12"/>
</g>
<!-- node11 -->
<g id="node13" class="node">
<title>node11</title>
<polygon fill="none" stroke="red" points="158.5,-1322.45 87,-1322.45 87,-1286.45 158.5,-1286.45 158.5,-1322.45"/>
<text xml:space="preserve" text-anchor="middle" x="122.75" y="-1299.4" font-family="Times,serif" font-size="14.00">Mismatch</text>
</g>
<!-- node10&#45;&gt;node11 -->
<g id="edge7" class="edge">
<title>node10&#45;&gt;node11</title>
<path fill="none" stroke="black" d="M225.05,-1362.28C207.85,-1352.73 184.15,-1339.56 163.89,-1328.3"/>
<polygon fill="black" stroke="black" points="165.73,-1325.32 155.29,-1323.52 162.33,-1331.44 165.73,-1325.32"/>
</g>
<!-- node12 -->
<g id="node14" class="node">
<title>node12</title>
<ellipse fill="none" stroke="black" cx="248.75" cy="-1304.45" rx="72.34" ry="18"/>
<text xml:space="preserve" text-anchor="middle" x="248.75" y="-1299.4" font-family="Times,serif" font-size="14.00">NegLookBehind</text>
</g>
<!-- node10&#45;&gt;node12 -->
<g id="edge8" class="edge">
<title>node10&#45;&gt;node12</title>
<path fill="none" stroke="black" d="M248.75,-1358.14C248.75,-1350.85 248.75,-1342.17 248.75,-1333.98"/>
<polygon fill="black" stroke="black" points="252.25,-1334.06 248.75,-1324.06 245.25,-1334.07 252.25,-1334.06"/>
</g>
<!-- node13 -->
<g id="node15" class="node">
<title>node13</title>
<polygon fill="none" stroke="red" points="214.5,-1250.45 143,-1250.45 143,-1214.45 214.5,-1214.45 214.5,-1250.45"/>
<text xml:space="preserve" text-anchor="middle" x="178.75" y="-1227.4" font-family="Times,serif" font-size="14.00">Mismatch</text>
</g>
<!-- node12&#45;&gt;node13 -->
<g id="edge5" class="edge">
<title>node12&#45;&gt;node13</title>
<path fill="none" stroke="black" stroke-dasharray="5,2" d="M231.8,-1286.5C223.5,-1278.2 213.33,-1268.03 204.13,-1258.82"/>
<polygon fill="black" stroke="black" points="206.64,-1256.39 197.1,-1251.79 201.69,-1261.34 206.64,-1256.39"/>
</g>
<!-- node14 -->
<g id="node16" class="node">
<title>node14</title>
<polygon fill="none" stroke="red" points="304.5,-1250.45 233,-1250.45 233,-1214.45 304.5,-1214.45 304.5,-1250.45"/>
<text xml:space="preserve" text-anchor="middle" x="268.75" y="-1227.4" font-family="Times,serif" font-size="14.00">Mismatch</text>
</g>
<!-- node12&#45;&gt;node14 -->
<g id="edge6" class="edge">
<title>node12&#45;&gt;node14</title>
<path fill="none" stroke="black" d="M253.69,-1286.14C255.83,-1278.68 258.37,-1269.77 260.76,-1261.41"/>
<polygon fill="black" stroke="black" points="264.07,-1262.58 263.45,-1252.01 257.33,-1260.66 264.07,-1262.58"/>
</g>
<!-- node16 -->
<g id="node18" class="node">
<title>node16</title>
<ellipse fill="none" stroke="black" cx="384.75" cy="-1304.45" rx="45.21" ry="18"/>
<text xml:space="preserve" text-anchor="middle" x="384.75" y="-1299.4" font-family="Times,serif" font-size="14.00">Read &quot;y&quot;</text>
</g>
<!-- node15&#45;&gt;node16 -->
<g id="edge46" class="edge">
<title>node15&#45;&gt;node16</title>
<path fill="none" stroke="black" d="M370.45,-1358.14C372.47,-1350.68 374.89,-1341.77 377.16,-1333.41"/>
<polygon fill="black" stroke="black" points="380.47,-1334.58 379.71,-1324.01 373.71,-1332.75 380.47,-1334.58"/>
</g>
<!-- node17 -->
<g id="node19" class="node">
<title>node17</title>
<ellipse fill="none" stroke="black" cx="384.75" cy="-1232.45" rx="42.65" ry="18"/>
<text xml:space="preserve" text-anchor="middle" x="384.75" y="-1227.4" font-family="Times,serif" font-size="14.00">Progress</text>
</g>
<!-- node16&#45;&gt;node17 -->
<g id="edge45" class="edge">
<title>node16&#45;&gt;node17</title>
<path fill="none" stroke="black" d="M384.75,-1286.14C384.75,-1278.85 384.75,-1270.17 384.75,-1261.98"/>
<polygon fill="black" stroke="black" points="388.25,-1262.06 384.75,-1252.06 381.25,-1262.07 388.25,-1262.06"/>
</g>
<!-- node18 -->
<g id="node20" class="node">
<title>node18</title>
<ellipse fill="none" stroke="black" cx="384.75" cy="-1160.45" rx="37.02" ry="18"/>
<text xml:space="preserve" text-anchor="middle" x="384.75" y="-1155.4" font-family="Times,serif" font-size="14.00">Choice</text>
</g>
<!-- node17&#45;&gt;node18 -->
<g id="edge44" class="edge">
<title>node17&#45;&gt;node18</title>
<path fill="none" stroke="black" d="M384.75,-1214.14C384.75,-1206.85 384.75,-1198.17 384.75,-1189.98"/>
<polygon fill="black" stroke="black" points="388.25,-1190.06 384.75,-1180.06 381.25,-1190.07 388.25,-1190.06"/>
</g>
<!-- node19 -->
<g id="node21" class="node">
<title>node19</title>
<ellipse fill="none" stroke="black" cx="335.75" cy="-1088.45" rx="37.02" ry="18"/>
<text xml:space="preserve" text-anchor="middle" x="335.75" y="-1083.4" font-family="Times,serif" font-size="14.00">Choice</text>
</g>
<!-- node18&#45;&gt;node19 -->
<g id="edge42" class="edge">
<title>node18&#45;&gt;node19</title>
<path fill="none" stroke="black" d="M373.14,-1142.86C367.34,-1134.58 360.2,-1124.37 353.71,-1115.11"/>
<polygon fill="black" stroke="black" points="356.75,-1113.34 348.15,-1107.16 351.01,-1117.36 356.75,-1113.34"/>
</g>
<!-- node24 -->
<g id="node26" class="node">
<title>node24</title>
<ellipse fill="none" stroke="black" cx="438.75" cy="-1088.45" rx="43.16" ry="18"/>
<text xml:space="preserve" text-anchor="middle" x="438.75" y="-1083.4" font-family="Times,serif" font-size="14.00">Reset {}</text>
</g>
<!-- node18&#45;&gt;node24 -->
<g id="edge43" class="edge">
<title>node18&#45;&gt;node24</title>
<path fill="none" stroke="black" d="M397.27,-1143.21C403.72,-1134.85 411.74,-1124.46 419,-1115.05"/>
<polygon fill="black" stroke="black" points="421.66,-1117.33 424.99,-1107.28 416.11,-1113.06 421.66,-1117.33"/>
</g>
<!-- node20 -->
<g id="node22" class="node">
<title>node20</title>
<polygon fill="none" stroke="red" points="272.5,-1029.95 201,-1029.95 201,-993.95 272.5,-993.95 272.5,-1029.95"/>
<text xml:space="preserve" text-anchor="middle" x="236.75" y="-1006.9" font-family="Times,serif" font-size="14.00">Mismatch</text>
</g>
<!-- node19&#45;&gt;node20 -->
<g id="edge11" class="edge">
<title>node19&#45;&gt;node20</title>
<path fill="none" stroke="black" d="M305.95,-1077.37C296.74,-1073.5 286.9,-1068.52 278.75,-1062.45 270.08,-1055.99 262.01,-1047.42 255.31,-1039.23"/>
<polygon fill="black" stroke="black" points="258.19,-1037.23 249.3,-1031.48 252.66,-1041.52 258.19,-1037.23"/>
</g>
<!-- node21 -->
<g id="node23" class="node">
<title>node21</title>
<ellipse fill="none" stroke="black" cx="335.75" cy="-1011.95" rx="45.21" ry="18"/>
<text xml:space="preserve" text-anchor="middle" x="335.75" y="-1006.9" font-family="Times,serif" font-size="14.00">Read &quot;y&quot;</text>
</g>
<!-- node19&#45;&gt;node21 -->
<g id="edge12" class="edge">
<title>node19&#45;&gt;node21</title>
<path fill="none" stroke="black" d="M335.75,-1070.17C335.75,-1061.77 335.75,-1051.44 335.75,-1041.88"/>
<polygon fill="black" stroke="black" points="339.25,-1041.9 335.75,-1031.9 332.25,-1041.9 339.25,-1041.9"/>
</g>
<!-- node22 -->
<g id="node24" class="node">
<title>node22</title>
<ellipse fill="none" stroke="black" cx="335.75" cy="-939.95" rx="45.21" ry="18"/>
<text xml:space="preserve" text-anchor="middle" x="335.75" y="-934.9" font-family="Times,serif" font-size="14.00">Read &quot;x&quot;</text>
</g>
<!-- node21&#45;&gt;node22 -->
<g id="edge10" class="edge">
<title>node21&#45;&gt;node22</title>
<path fill="none" stroke="black" d="M335.75,-993.64C335.75,-986.35 335.75,-977.67 335.75,-969.48"/>
<polygon fill="black" stroke="black" points="339.25,-969.56 335.75,-959.56 332.25,-969.57 339.25,-969.56"/>
</g>
<!-- node23 -->
<g id="node25" class="node">
<title>node23</title>
<ellipse fill="none" stroke="green" cx="335.75" cy="-846.97" rx="34.97" ry="34.97"/>
<ellipse fill="none" stroke="green" cx="335.75" cy="-846.97" rx="38.97" ry="38.97"/>
<text xml:space="preserve" text-anchor="middle" x="335.75" y="-841.92" font-family="Times,serif" font-size="14.00">Match</text>
</g>
<!-- node22&#45;&gt;node23 -->
<g id="edge9" class="edge">
<title>node22&#45;&gt;node23</title>
<path fill="none" stroke="black" d="M335.75,-921.84C335.75,-914.82 335.75,-906.31 335.75,-897.59"/>
<polygon fill="black" stroke="black" points="339.25,-897.64 335.75,-887.64 332.25,-897.64 339.25,-897.64"/>
</g>
<!-- node25 -->
<g id="node27" class="node">
<title>node25</title>
<ellipse fill="none" stroke="black" cx="443.75" cy="-1011.95" rx="45.21" ry="18"/>
<text xml:space="preserve" text-anchor="middle" x="443.75" y="-1006.9" font-family="Times,serif" font-size="14.00">Read &quot;b&quot;</text>
</g>
<!-- node24&#45;&gt;node25 -->
<g id="edge41" class="edge">
<title>node24&#45;&gt;node25</title>
<path fill="none" stroke="black" d="M439.91,-1070.17C440.48,-1061.67 441.18,-1051.21 441.83,-1041.56"/>
<polygon fill="black" stroke="black" points="445.3,-1042.11 442.48,-1031.9 438.32,-1041.64 445.3,-1042.11"/>
</g>
<!-- node26 -->
<g id="node28" class="node">
<title>node26</title>
<ellipse fill="none" stroke="black" cx="443.75" cy="-939.95" rx="42.65" ry="18"/>
<text xml:space="preserve" text-anchor="middle" x="443.75" y="-934.9" font-family="Times,serif" font-size="14.00">Progress</text>
</g>
<!-- node25&#45;&gt;node26 -->
<g id="edge40" class="edge">
<title>node25&#45;&gt;node26</title>
<path fill="none" stroke="black" d="M443.75,-993.64C443.75,-986.35 443.75,-977.67 443.75,-969.48"/>
<polygon fill="black" stroke="black" points="447.25,-969.56 443.75,-959.56 440.25,-969.57 447.25,-969.56"/>
</g>
<!-- node27 -->
<g id="node29" class="node">
<title>node27</title>
<ellipse fill="none" stroke="black" cx="443.75" cy="-846.97" rx="37.02" ry="18"/>
<text xml:space="preserve" text-anchor="middle" x="443.75" y="-841.92" font-family="Times,serif" font-size="14.00">Choice</text>
</g>
<!-- node26&#45;&gt;node27 -->
<g id="edge39" class="edge">
<title>node26&#45;&gt;node27</title>
<path fill="none" stroke="black" d="M443.75,-921.84C443.75,-909.08 443.75,-891.38 443.75,-876.5"/>
<polygon fill="black" stroke="black" points="447.25,-876.83 443.75,-866.83 440.25,-876.83 447.25,-876.83"/>
</g>
<!-- node28 -->
<g id="node30" class="node">
<title>node28</title>
<ellipse fill="none" stroke="black" cx="386.75" cy="-754" rx="37.02" ry="18"/>
<text xml:space="preserve" text-anchor="middle" x="386.75" y="-748.95" font-family="Times,serif" font-size="14.00">Choice</text>
</g>
<!-- node27&#45;&gt;node28 -->
<g id="edge37" class="edge">
<title>node27&#45;&gt;node28</title>
<path fill="none" stroke="black" d="M433.3,-829.29C424.86,-815.82 412.84,-796.64 403.13,-781.14"/>
<polygon fill="black" stroke="black" points="406.22,-779.48 397.94,-772.86 400.29,-783.2 406.22,-779.48"/>
</g>
<!-- node34 -->
<g id="node36" class="node">
<title>node34</title>
<ellipse fill="none" stroke="black" cx="500.75" cy="-754" rx="43.16" ry="18"/>
<text xml:space="preserve" text-anchor="middle" x="500.75" y="-748.95" font-family="Times,serif" font-size="14.00">Reset {}</text>
</g>
<!-- node27&#45;&gt;node34 -->
<g id="edge38" class="edge">
<title>node27&#45;&gt;node34</title>
<path fill="none" stroke="black" d="M454.2,-829.29C462.59,-815.91 474.51,-796.88 484.19,-781.43"/>
<polygon fill="black" stroke="black" points="487.02,-783.5 489.36,-773.17 481.09,-779.79 487.02,-783.5"/>
</g>
<!-- node29 -->
<g id="node31" class="node">
<title>node29</title>
<polygon fill="none" stroke="red" points="296.5,-700 225,-700 225,-664 296.5,-664 296.5,-700"/>
<text xml:space="preserve" text-anchor="middle" x="260.75" y="-676.95" font-family="Times,serif" font-size="14.00">Mismatch</text>
</g>
<!-- node28&#45;&gt;node29 -->
<g id="edge16" class="edge">
<title>node28&#45;&gt;node29</title>
<path fill="none" stroke="black" d="M363.05,-739.83C345.85,-730.28 322.15,-717.11 301.89,-705.86"/>
<polygon fill="black" stroke="black" points="303.73,-702.87 293.29,-701.08 300.33,-708.99 303.73,-702.87"/>
</g>
<!-- node30 -->
<g id="node32" class="node">
<title>node30</title>
<ellipse fill="none" stroke="black" cx="386.75" cy="-682" rx="72.34" ry="18"/>
<text xml:space="preserve" text-anchor="middle" x="386.75" y="-676.95" font-family="Times,serif" font-size="14.00">NegLookBehind</text>
</g>
<!-- node28&#45;&gt;node30 -->
<g id="edge17" class="edge">
<title>node28&#45;&gt;node30</title>
<path fill="none" stroke="black" d="M386.75,-735.7C386.75,-728.41 386.75,-719.73 386.75,-711.54"/>
<polygon fill="black" stroke="black" points="390.25,-711.62 386.75,-701.62 383.25,-711.62 390.25,-711.62"/>
</g>
<!-- node31 -->
<g id="node33" class="node">
<title>node31</title>
<polygon fill="none" stroke="red" points="338.5,-628 267,-628 267,-592 338.5,-592 338.5,-628"/>
<text xml:space="preserve" text-anchor="middle" x="302.75" y="-604.95" font-family="Times,serif" font-size="14.00">Mismatch</text>
</g>
<!-- node30&#45;&gt;node31 -->
<g id="edge14" class="edge">
<title>node30&#45;&gt;node31</title>
<path fill="none" stroke="black" stroke-dasharray="5,2" d="M366.84,-664.41C356.58,-655.86 343.87,-645.26 332.47,-635.77"/>
<polygon fill="black" stroke="black" points="334.77,-633.13 324.85,-629.42 330.29,-638.51 334.77,-633.13"/>
</g>
<!-- node32 -->
<g id="node34" class="node">
<title>node32</title>
<ellipse fill="none" stroke="black" cx="401.75" cy="-610" rx="45.21" ry="18"/>
<text xml:space="preserve" text-anchor="middle" x="401.75" y="-604.95" font-family="Times,serif" font-size="14.00">Read &quot;b&quot;</text>
</g>
<!-- node30&#45;&gt;node32 -->
<g id="edge15" class="edge">
<title>node30&#45;&gt;node32</title>
<path fill="none" stroke="black" d="M390.46,-663.7C392.04,-656.32 393.92,-647.52 395.7,-639.25"/>
<polygon fill="black" stroke="black" points="399.09,-640.1 397.77,-629.58 392.25,-638.63 399.09,-640.1"/>
</g>
<!-- node33 -->
<g id="node35" class="node">
<title>node33</title>
<polygon fill="none" stroke="red" points="437.5,-556 366,-556 366,-520 437.5,-520 437.5,-556"/>
<text xml:space="preserve" text-anchor="middle" x="401.75" y="-532.95" font-family="Times,serif" font-size="14.00">Mismatch</text>
</g>
<!-- node32&#45;&gt;node33 -->
<g id="edge13" class="edge">
<title>node32&#45;&gt;node33</title>
<path fill="none" stroke="black" d="M401.75,-591.7C401.75,-584.41 401.75,-575.73 401.75,-567.54"/>
<polygon fill="black" stroke="black" points="405.25,-567.62 401.75,-557.62 398.25,-567.62 405.25,-567.62"/>
</g>
<!-- node35 -->
<g id="node37" class="node">
<title>node35</title>
<ellipse fill="none" stroke="black" cx="522.75" cy="-682" rx="45.21" ry="18"/>
<text xml:space="preserve" text-anchor="middle" x="522.75" y="-676.95" font-family="Times,serif" font-size="14.00">Read &quot;b&quot;</text>
</g>
<!-- node34&#45;&gt;node35 -->
<g id="edge36" class="edge">
<title>node34&#45;&gt;node35</title>
<path fill="none" stroke="black" d="M506.19,-735.7C508.53,-728.24 511.33,-719.32 513.96,-710.97"/>
<polygon fill="black" stroke="black" points="517.26,-712.14 516.92,-701.55 510.58,-710.04 517.26,-712.14"/>
</g>
<!-- node36 -->
<g id="node38" class="node">
<title>node36</title>
<ellipse fill="none" stroke="black" cx="522.75" cy="-610" rx="42.65" ry="18"/>
<text xml:space="preserve" text-anchor="middle" x="522.75" y="-604.95" font-family="Times,serif" font-size="14.00">Progress</text>
</g>
<!-- node35&#45;&gt;node36 -->
<g id="edge35" class="edge">
<title>node35&#45;&gt;node36</title>
<path fill="none" stroke="black" d="M522.75,-663.7C522.75,-656.41 522.75,-647.73 522.75,-639.54"/>
<polygon fill="black" stroke="black" points="526.25,-639.62 522.75,-629.62 519.25,-639.62 526.25,-639.62"/>
</g>
<!-- node37 -->
<g id="node39" class="node">
<title>node37</title>
<ellipse fill="none" stroke="black" cx="522.75" cy="-538" rx="37.02" ry="18"/>
<text xml:space="preserve" text-anchor="middle" x="522.75" y="-532.95" font-family="Times,serif" font-size="14.00">Choice</text>
</g>
<!-- node36&#45;&gt;node37 -->
<g id="edge34" class="edge">
<title>node36&#45;&gt;node37</title>
<path fill="none" stroke="black" d="M522.75,-591.7C522.75,-584.41 522.75,-575.73 522.75,-567.54"/>
<polygon fill="black" stroke="black" points="526.25,-567.62 522.75,-557.62 519.25,-567.62 526.25,-567.62"/>
</g>
<!-- node38 -->
<g id="node40" class="node">
<title>node38</title>
<ellipse fill="none" stroke="black" cx="463.75" cy="-466" rx="37.02" ry="18"/>
<text xml:space="preserve" text-anchor="middle" x="463.75" y="-460.95" font-family="Times,serif" font-size="14.00">Choice</text>
</g>
<!-- node37&#45;&gt;node38 -->
<g id="edge32" class="edge">
<title>node37&#45;&gt;node38</title>
<path fill="none" stroke="black" d="M509.36,-521.12C501.97,-512.34 492.63,-501.26 484.33,-491.42"/>
<polygon fill="black" stroke="black" points="487.18,-489.37 478.06,-483.98 481.83,-493.88 487.18,-489.37"/>
</g>
<!-- node43 -->
<g id="node45" class="node">
<title>node43</title>
<ellipse fill="none" stroke="black" cx="580.75" cy="-466" rx="43.16" ry="18"/>
<text xml:space="preserve" text-anchor="middle" x="580.75" y="-460.95" font-family="Times,serif" font-size="14.00">Reset {}</text>
</g>
<!-- node37&#45;&gt;node43 -->
<g id="edge33" class="edge">
<title>node37&#45;&gt;node43</title>
<path fill="none" stroke="black" d="M536.2,-520.76C543.3,-512.19 552.17,-501.49 560.12,-491.9"/>
<polygon fill="black" stroke="black" points="562.72,-494.25 566.41,-484.31 557.33,-489.78 562.72,-494.25"/>
</g>
<!-- node39 -->
<g id="node41" class="node">
<title>node39</title>
<polygon fill="none" stroke="red" points="373.5,-412 302,-412 302,-376 373.5,-376 373.5,-412"/>
<text xml:space="preserve" text-anchor="middle" x="337.75" y="-388.95" font-family="Times,serif" font-size="14.00">Mismatch</text>
</g>
<!-- node38&#45;&gt;node39 -->
<g id="edge20" class="edge">
<title>node38&#45;&gt;node39</title>
<path fill="none" stroke="black" d="M440.05,-451.83C422.85,-442.28 399.15,-429.11 378.89,-417.86"/>
<polygon fill="black" stroke="black" points="380.73,-414.87 370.29,-413.08 377.33,-420.99 380.73,-414.87"/>
</g>
<!-- node40 -->
<g id="node42" class="node">
<title>node40</title>
<ellipse fill="none" stroke="black" cx="463.75" cy="-394" rx="72.34" ry="18"/>
<text xml:space="preserve" text-anchor="middle" x="463.75" y="-388.95" font-family="Times,serif" font-size="14.00">NegLookBehind</text>
</g>
<!-- node38&#45;&gt;node40 -->
<g id="edge21" class="edge">
<title>node38&#45;&gt;node40</title>
<path fill="none" stroke="black" d="M463.75,-447.7C463.75,-440.41 463.75,-431.73 463.75,-423.54"/>
<polygon fill="black" stroke="black" points="467.25,-423.62 463.75,-413.62 460.25,-423.62 467.25,-423.62"/>
</g>
<!-- node41 -->
<g id="node43" class="node">
<title>node41</title>
<polygon fill="none" stroke="red" points="428.5,-340 357,-340 357,-304 428.5,-304 428.5,-340"/>
<text xml:space="preserve" text-anchor="middle" x="392.75" y="-316.95" font-family="Times,serif" font-size="14.00">Mismatch</text>
</g>
<!-- node40&#45;&gt;node41 -->
<g id="edge18" class="edge">
<title>node40&#45;&gt;node41</title>
<path fill="none" stroke="black" stroke-dasharray="5,2" d="M446.56,-376.05C438.06,-367.67 427.62,-357.38 418.2,-348.1"/>
<polygon fill="black" stroke="black" points="420.93,-345.87 411.35,-341.34 416.01,-350.85 420.93,-345.87"/>
</g>
<!-- node42 -->
<g id="node44" class="node">
<title>node42</title>
<polygon fill="none" stroke="red" points="518.5,-340 447,-340 447,-304 518.5,-304 518.5,-340"/>
<text xml:space="preserve" text-anchor="middle" x="482.75" y="-316.95" font-family="Times,serif" font-size="14.00">Mismatch</text>
</g>
<!-- node40&#45;&gt;node42 -->
<g id="edge19" class="edge">
<title>node40&#45;&gt;node42</title>
<path fill="none" stroke="black" d="M468.45,-375.7C470.47,-368.24 472.89,-359.32 475.16,-350.97"/>
<polygon fill="black" stroke="black" points="478.47,-352.13 477.71,-341.57 471.71,-350.3 478.47,-352.13"/>
</g>
<!-- node44 -->
<g id="node46" class="node">
<title>node44</title>
<ellipse fill="none" stroke="black" cx="598.75" cy="-394" rx="44.7" ry="18"/>
<text xml:space="preserve" text-anchor="middle" x="598.75" y="-388.95" font-family="Times,serif" font-size="14.00">Read &quot;c&quot;</text>
</g>
<!-- node43&#45;&gt;node44 -->
<g id="edge31" class="edge">
<title>node43&#45;&gt;node44</title>
<path fill="none" stroke="black" d="M585.2,-447.7C587.1,-440.32 589.36,-431.52 591.49,-423.25"/>
<polygon fill="black" stroke="black" points="594.87,-424.13 593.97,-413.57 588.09,-422.38 594.87,-424.13"/>
</g>
<!-- node45 -->
<g id="node47" class="node">
<title>node45</title>
<ellipse fill="none" stroke="black" cx="598.75" cy="-322" rx="42.65" ry="18"/>
<text xml:space="preserve" text-anchor="middle" x="598.75" y="-316.95" font-family="Times,serif" font-size="14.00">Progress</text>
</g>
<!-- node44&#45;&gt;node45 -->
<g id="edge30" class="edge">
<title>node44&#45;&gt;node45</title>
<path fill="none" stroke="black" d="M598.75,-375.7C598.75,-368.41 598.75,-359.73 598.75,-351.54"/>
<polygon fill="black" stroke="black" points="602.25,-351.62 598.75,-341.62 595.25,-351.62 602.25,-351.62"/>
</g>
<!-- node46 -->
<g id="node48" class="node">
<title>node46</title>
<ellipse fill="none" stroke="black" cx="598.75" cy="-250" rx="37.02" ry="18"/>
<text xml:space="preserve" text-anchor="middle" x="598.75" y="-244.95" font-family="Times,serif" font-size="14.00">Choice</text>
</g>
<!-- node45&#45;&gt;node46 -->
<g id="edge29" class="edge">
<title>node45&#45;&gt;node46</title>
<path fill="none" stroke="black" d="M598.75,-303.7C598.75,-296.41 598.75,-287.73 598.75,-279.54"/>
<polygon fill="black" stroke="black" points="602.25,-279.62 598.75,-269.62 595.25,-279.62 602.25,-279.62"/>
</g>
<!-- node47 -->
<g id="node49" class="node">
<title>node47</title>
<ellipse fill="none" stroke="black" cx="566.75" cy="-178" rx="37.02" ry="18"/>
<text xml:space="preserve" text-anchor="middle" x="566.75" y="-172.95" font-family="Times,serif" font-size="14.00">Choice</text>
</g>
<!-- node46&#45;&gt;node47 -->
<g id="edge27" class="edge">
<title>node46&#45;&gt;node47</title>
<path fill="none" stroke="black" d="M591,-232.05C587.43,-224.23 583.09,-214.75 579.08,-205.98"/>
<polygon fill="black" stroke="black" points="582.4,-204.81 575.05,-197.17 576.03,-207.72 582.4,-204.81"/>
</g>
<!-- node52 -->
<g id="node54" class="node">
<title>node52</title>
<ellipse fill="none" stroke="black" cx="678.75" cy="-178" rx="43.16" ry="18"/>
<text xml:space="preserve" text-anchor="middle" x="678.75" y="-172.95" font-family="Times,serif" font-size="14.00">Reset {}</text>
</g>
<!-- node46&#45;&gt;node52 -->
<g id="edge28" class="edge">
<title>node46&#45;&gt;node52</title>
<path fill="none" stroke="black" d="M616.11,-233.81C626.66,-224.58 640.33,-212.61 652.22,-202.22"/>
<polygon fill="black" stroke="black" points="654.51,-204.86 659.73,-195.64 649.9,-199.59 654.51,-204.86"/>
</g>
<!-- node48 -->
<g id="node50" class="node">
<title>node48</title>
<polygon fill="none" stroke="red" points="476.5,-124 405,-124 405,-88 476.5,-88 476.5,-124"/>
<text xml:space="preserve" text-anchor="middle" x="440.75" y="-100.95" font-family="Times,serif" font-size="14.00">Mismatch</text>
</g>
<!-- node47&#45;&gt;node48 -->
<g id="edge24" class="edge">
<title>node47&#45;&gt;node48</title>
<path fill="none" stroke="black" d="M543.05,-163.83C525.85,-154.28 502.15,-141.11 481.89,-129.86"/>
<polygon fill="black" stroke="black" points="483.73,-126.87 473.29,-125.08 480.33,-132.99 483.73,-126.87"/>
</g>
<!-- node49 -->
<g id="node51" class="node">
<title>node49</title>
<ellipse fill="none" stroke="black" cx="566.75" cy="-106" rx="72.34" ry="18"/>
<text xml:space="preserve" text-anchor="middle" x="566.75" y="-100.95" font-family="Times,serif" font-size="14.00">NegLookBehind</text>
</g>
<!-- node47&#45;&gt;node49 -->
<g id="edge25" class="edge">
<title>node47&#45;&gt;node49</title>
<path fill="none" stroke="black" d="M566.75,-159.7C566.75,-152.41 566.75,-143.73 566.75,-135.54"/>
<polygon fill="black" stroke="black" points="570.25,-135.62 566.75,-125.62 563.25,-135.62 570.25,-135.62"/>
</g>
<!-- node50 -->
<g id="node52" class="node">
<title>node50</title>
<polygon fill="none" stroke="red" points="557.5,-52 486,-52 486,-16 557.5,-16 557.5,-52"/>
<text xml:space="preserve" text-anchor="middle" x="521.75" y="-28.95" font-family="Times,serif" font-size="14.00">Mismatch</text>
</g>
<!-- node49&#45;&gt;node50 -->
<g id="edge22" class="edge">
<title>node49&#45;&gt;node50</title>
<path fill="none" stroke="black" stroke-dasharray="5,2" d="M555.86,-88.05C550.79,-80.18 544.65,-70.62 538.97,-61.79"/>
<polygon fill="black" stroke="black" points="542.03,-60.07 533.67,-53.55 536.14,-63.85 542.03,-60.07"/>
</g>
<!-- node51 -->
<g id="node53" class="node">
<title>node51</title>
<polygon fill="none" stroke="red" points="647.5,-52 576,-52 576,-16 647.5,-16 647.5,-52"/>
<text xml:space="preserve" text-anchor="middle" x="611.75" y="-28.95" font-family="Times,serif" font-size="14.00">Mismatch</text>
</g>
<!-- node49&#45;&gt;node51 -->
<g id="edge23" class="edge">
<title>node49&#45;&gt;node51</title>
<path fill="none" stroke="black" d="M577.64,-88.05C582.71,-80.18 588.85,-70.62 594.53,-61.79"/>
<polygon fill="black" stroke="black" points="597.36,-63.85 599.83,-53.55 591.47,-60.07 597.36,-63.85"/>
</g>
<!-- node53 -->
<g id="node55" class="node">
<title>node53</title>
<polygon fill="none" stroke="red" points="728.5,-124 657,-124 657,-88 728.5,-88 728.5,-124"/>
<text xml:space="preserve" text-anchor="middle" x="692.75" y="-100.95" font-family="Times,serif" font-size="14.00">Mismatch</text>
</g>
<!-- node52&#45;&gt;node53 -->
<g id="edge26" class="edge">
<title>node52&#45;&gt;node53</title>
<path fill="none" stroke="black" d="M682.21,-159.7C683.69,-152.32 685.45,-143.52 687.1,-135.25"/>
<polygon fill="black" stroke="black" points="690.5,-136.08 689.03,-125.59 683.64,-134.71 690.5,-136.08"/>
</g>
</g>
</svg>
